<svg width="31" height="31" viewBox="0 0 31 31" fill="none" xmlns="http://www.w3.org/2000/svg">
<path d="M22.3535 15.5H22.3385M15.6035 15.5H15.5885M8.85352 15.5H8.83852M15.6035 29C8.14767 29 2.10352 22.9558 2.10352 15.5C2.10352 8.04416 8.14767 2 15.6035 2C23.0594 2 29.1035 8.04416 29.1035 15.5C29.1035 17.2957 28.7529 19.0095 28.1164 20.5768C27.9946 20.8767 27.9337 21.0267 27.9065 21.1479C27.8799 21.2665 27.8702 21.3543 27.8702 21.4758C27.8702 21.6 27.8927 21.7354 27.9379 22.006L28.8273 27.3429C28.9205 27.9017 28.967 28.1812 28.8804 28.3832C28.8045 28.5601 28.6636 28.701 28.4867 28.7769C28.2847 28.8635 28.0052 28.817 27.4464 28.7238L22.1095 27.8343C21.8389 27.7892 21.7036 27.7667 21.5793 27.7667C21.4578 27.7667 21.37 27.7764 21.2514 27.803C21.1302 27.8302 20.9802 27.8911 20.6803 28.0129C19.1131 28.6494 17.3992 29 15.6035 29ZM21.6035 15.5C21.6035 15.9142 21.9393 16.25 22.3535 16.25C22.7677 16.25 23.1035 15.9142 23.1035 15.5C23.1035 15.0858 22.7677 14.75 22.3535 14.75C21.9393 14.75 21.6035 15.0858 21.6035 15.5ZM14.8535 15.5C14.8535 15.9142 15.1893 16.25 15.6035 16.25C16.0177 16.25 16.3535 15.9142 16.3535 15.5C16.3535 15.0858 16.0177 14.75 15.6035 14.75C15.1893 14.75 14.8535 15.0858 14.8535 15.5ZM8.10352 15.5C8.10352 15.9142 8.4393 16.25 8.85352 16.25C9.26773 16.25 9.60352 15.9142 9.60352 15.5C9.60352 15.0858 9.26773 14.75 8.85352 14.75C8.4393 14.75 8.10352 15.0858 8.10352 15.5Z" stroke="#222222" stroke-width="3" stroke-linecap="round" stroke-linejoin="round"/>
</svg>
