<svg width="315" height="77" viewBox="0 0 315 77" fill="none" xmlns="http://www.w3.org/2000/svg">
<g clip-path="url(#clip0_1759_6040)">
<path d="M1.90735e-06 0V77.0185H64.779V0H1.90735e-06ZM57.2879 69.5482H7.4725V7.45186H57.2879V69.5482Z" fill="white"/>
<path d="M49.8154 14.9037H14.945V62.0963H49.8154V14.9037Z" fill="#76BC21"/>
<path d="M84.0916 28.8259C85.3532 30.009 86.8378 30.9305 88.4592 31.537C90.2163 32.193 92.0798 32.5194 93.9559 32.5C95.8079 32.5202 97.6472 32.1936 99.3783 31.537C100.985 30.9273 102.457 30.0115 103.712 28.8407C104.943 27.683 105.922 26.2864 106.591 24.737C107.294 23.107 107.648 21.3485 107.631 19.5741C107.653 17.8016 107.298 16.0446 106.591 14.4185C105.911 12.8841 104.933 11.4994 103.712 10.3444C102.461 9.16417 100.988 8.24273 99.3783 7.63331C95.8597 6.3444 91.9964 6.3444 88.4778 7.63331C86.8576 8.24233 85.3735 9.16356 84.1102 10.3444C82.8833 11.4947 81.9062 12.8839 81.2393 14.4259C79.8774 17.7185 79.8774 21.4148 81.2393 24.7074C81.8991 26.2595 82.8697 27.661 84.0916 28.8259V28.8259ZM86.6914 16.3259C87.069 15.3782 87.635 14.5165 88.3552 13.7926C89.0654 13.0841 89.9118 12.526 90.8436 12.1518C91.829 11.7619 92.881 11.5669 93.941 11.5778C95.007 11.5679 96.065 11.7628 97.0571 12.1518C97.9922 12.5197 98.8398 13.0786 99.5454 13.7926C100.256 14.5203 100.816 15.3813 101.191 16.3259C101.978 18.4214 101.978 20.7304 101.191 22.8259C100.82 23.7706 100.259 24.6297 99.5429 25.3506C98.827 26.0716 97.971 26.6391 97.0273 27.0185C96.0417 27.4072 94.9897 27.6009 93.9299 27.5889C92.8654 27.5999 91.8087 27.4062 90.8176 27.0185C89.8814 26.6511 89.0334 26.0907 88.3292 25.3741C87.6116 24.6438 87.0506 23.7756 86.6802 22.8222C85.8928 20.7331 85.8928 18.4299 86.6802 16.3407L86.6914 16.3259Z" fill="white"/>
<path d="M133.955 7.08148H127.835L121.261 17.1852H117.094V7.08148H111.33V32.0741H117.094V22.0037H121.09L127.619 32.0741H134.204L125.766 19.1519L133.955 7.08148Z" fill="white"/>
<path d="M157.855 10.3297C156.604 9.1494 155.131 8.22796 153.52 7.61854C150.002 6.32963 146.139 6.32963 142.62 7.61854C141 8.22756 139.516 9.14879 138.252 10.3297C137.02 11.4832 136.039 12.8776 135.37 14.426C134.008 17.7186 134.008 21.4148 135.37 24.7074C136.035 26.2566 137.009 27.6542 138.234 28.8148C139.495 29.998 140.98 30.9195 142.601 31.5259C144.359 32.1819 146.222 32.5084 148.098 32.4889C149.95 32.5092 151.789 32.1825 153.52 31.5259C155.127 30.9162 156.599 30.0004 157.855 28.8297C159.085 27.6719 160.064 26.2753 160.733 24.726C161.436 23.0959 161.79 21.3374 161.773 19.563C161.795 17.7905 161.441 16.0335 160.733 14.4074C160.053 12.8717 159.075 11.4857 157.855 10.3297V10.3297ZM155.311 22.826C154.941 23.7696 154.382 24.6281 153.668 25.3489C152.954 26.0698 152.1 26.6379 151.158 27.0185C150.173 27.4072 149.121 27.6009 148.061 27.5889C146.996 27.6 145.94 27.4063 144.949 27.0185C144.012 26.6511 143.164 26.0908 142.46 25.3741C141.743 24.6439 141.182 23.7757 140.811 22.8223C140.024 20.7331 140.024 18.4299 140.811 16.3408C141.189 15.3931 141.755 14.5313 142.475 13.8074C143.185 13.099 144.032 12.5409 144.964 12.1667C145.949 11.7768 147.001 11.5818 148.061 11.5926C149.127 11.5828 150.185 11.7777 151.177 12.1667C152.112 12.5346 152.96 13.0935 153.665 13.8074C154.376 14.5351 154.936 15.3962 155.311 16.3408C156.098 18.4362 156.098 20.7453 155.311 22.8408V22.826Z" fill="white"/>
<path d="M171.329 21.8259H182.716V32.0741H188.513V7.08148H182.716V16.9333H171.329V7.08148H165.531V32.0741H171.329V21.8259Z" fill="white"/>
<path d="M217.048 32.0741V7.08148H211.247V16.9333H199.863V7.08148H194.066V32.0741H199.863V21.8259H211.247V32.0741H217.048Z" fill="white"/>
<path d="M253.17 7.08148H247.406V32.0741H253.17V7.08148Z" fill="white"/>
<path d="M241.753 17.3111C240.104 15.9679 237.764 15.2951 234.734 15.2926H228.361V7.08148H222.6V32.0741H233.913C237.132 32.0741 239.655 31.3333 241.482 29.8519C243.309 28.3704 244.223 26.2037 244.223 23.3519C244.223 20.6679 243.4 18.6543 241.753 17.3111ZM237.107 26.6815C236.245 27.4222 235.075 27.7926 233.597 27.7926H228.361V19.5741H233.59C235.094 19.5741 236.268 19.8778 237.118 20.4889C237.969 21.1 238.385 22.0889 238.385 23.4518C238.385 24.8148 237.957 25.9444 237.107 26.6815Z" fill="white"/>
<path d="M276.122 32.0741H281.845V7.08148H276.404L264.449 23.3593V7.08148H258.685V32.0741H264.163L276.122 15.8296V32.0741Z" fill="white"/>
<path d="M265.006 4.05553C266.113 5.00862 267.861 5.48393 270.25 5.48146C272.64 5.47899 274.382 5.00368 275.476 4.05553C276.598 3.10244 277.171 1.75677 277.196 0.0184937H273.222C273.236 0.38034 273.174 0.741197 273.038 1.07709C272.902 1.41299 272.697 1.71622 272.434 1.96663C271.812 2.44608 271.035 2.68072 270.25 2.6259C269.26 2.6259 268.526 2.40614 268.048 1.96663C267.79 1.71337 267.589 1.40929 267.456 1.07384C267.323 0.738382 267.261 0.378944 267.276 0.0184937H263.305C263.328 1.7543 263.895 3.09997 265.006 4.05553Z" fill="white"/>
<path d="M104.526 44.2667H98.4052L91.8315 54.3704H87.6644V44.2667H81.9004V69.2593H87.6644V59.1889H91.6607L98.1898 69.2593H104.775L96.3366 56.337L104.526 44.2667Z" fill="white"/>
<path d="M128.425 47.5148C127.175 46.3319 125.702 45.4079 124.091 44.7963C120.572 43.5074 116.709 43.5074 113.191 44.7963C111.57 45.4053 110.086 46.3265 108.823 47.5074C107.588 48.6632 106.607 50.0618 105.941 51.6148C104.579 54.9074 104.579 58.6037 105.941 61.8963C106.604 63.4448 107.579 64.8414 108.804 66C110.065 67.1854 111.55 68.1084 113.172 68.7148C114.929 69.3707 116.793 69.6972 118.669 69.6778C120.521 69.698 122.36 69.3714 124.091 68.7148C125.698 68.105 127.17 67.1892 128.425 66.0185C129.656 64.8602 130.636 63.4638 131.307 61.9148C132.009 60.2842 132.363 58.5261 132.347 56.7518C132.373 55.0216 132.038 53.3048 131.363 51.7107C130.688 50.1166 129.687 48.6801 128.425 47.4926V47.5148ZM125.881 60.0111C125.506 60.96 124.94 61.8222 124.217 62.5444C123.509 63.2556 122.662 63.8151 121.729 64.1889C120.743 64.5775 119.691 64.7713 118.631 64.7592C117.567 64.7703 116.51 64.5766 115.519 64.1889C114.583 63.8214 113.735 63.2611 113.031 62.5444C112.315 61.8134 111.755 60.9453 111.386 59.9926C110.593 57.9043 110.593 55.5994 111.386 53.5111C111.756 52.5699 112.314 51.7139 113.028 50.9955C113.741 50.2772 114.594 49.7116 115.534 49.3333C116.52 48.9466 117.572 48.753 118.631 48.763C119.697 48.7537 120.755 48.9473 121.748 49.3333C122.682 49.7039 123.529 50.2638 124.236 50.9778C124.947 51.7054 125.506 52.5665 125.881 53.5111C126.669 55.6066 126.669 57.9156 125.881 60.0111Z" fill="white"/>
<path d="M153.287 54.1185H141.899V44.2667H136.102V69.2593H141.899V59.0111H153.287V69.2593H159.088V44.2667H153.287V54.1185Z" fill="white"/>
<path d="M162.059 48.9815H170.044V69.2593H175.771V48.9815H183.789V44.2667H162.059V48.9815Z" fill="white"/>
<path d="M192.487 60.5444V44.2667H186.723V69.2593H192.201L204.16 53.0148V69.2593H209.887V44.2667H204.446L192.487 60.5444Z" fill="white"/>
<path d="M232.583 54.1185H221.2V44.2667H215.403V69.2593H221.2V59.0111H232.583V69.2593H238.385V44.2667H232.583V54.1185Z" fill="white"/>
<path d="M249.697 58.8333H261.333V54.3333H249.697V48.9074H262.874V44.2667H243.937V69.2593H263.339V64.6185H249.697V58.8333Z" fill="white"/>
<path d="M284.497 54.1185H273.11V44.2667H267.313V69.2593H273.11V59.0111H284.497V69.2593H290.295V44.2667H284.497V54.1185Z" fill="white"/>
<path d="M314.996 44.2667H293.266V48.9815H301.251V69.2593H306.978V48.9815H314.996V44.2667Z" fill="white"/>
</g>
<defs>
<clipPath id="clip0_1759_6040">
<rect width="315" height="77" fill="white"/>
</clipPath>
</defs>
</svg>
