<svg width="250" height="62" viewBox="0 0 250 62" fill="none" xmlns="http://www.w3.org/2000/svg">
<path d="M0 0V61.6646H51.397V0H0ZM45.4665 55.6968H5.93054V5.96773H45.4665V55.6968Z" fill="#003595"/>
<path d="M39.5362 11.9355H11.8613V49.7292H39.5362V11.9355Z" fill="#76BC21"/>
<path d="M66.7482 23.0855C67.7238 24.0198 68.8793 24.7435 70.2145 25.2566C71.5498 25.7727 73.0059 26.0278 74.577 26.0278C76.148 26.0278 77.5658 25.7727 78.8834 25.2566C80.201 24.7435 81.3476 24.0227 82.3232 23.0973C83.2989 22.1749 84.0593 21.0774 84.6076 19.8109C85.1588 18.5414 85.4329 17.1652 85.4329 15.6792C85.4329 14.1932 85.1588 12.7962 84.6076 11.5474C84.0593 10.2987 83.2959 9.20722 82.3232 8.27291C81.3476 7.33859 80.201 6.61487 78.8834 6.10174C77.5658 5.58565 76.1215 5.33057 74.5504 5.33057C72.9794 5.33057 71.5586 5.58565 70.2322 6.10174C68.9058 6.61487 67.7504 7.33859 66.7659 8.27291C65.7814 9.20722 65.0179 10.3047 64.4785 11.5623C63.9391 12.8199 63.6709 14.1932 63.6709 15.6792C63.6709 17.1652 63.9391 18.5385 64.4785 19.7961C65.0179 21.0537 65.7755 22.1511 66.7541 23.0855H66.7482ZM68.7938 13.0779C69.1062 12.2979 69.5454 11.6186 70.1143 11.0491C70.6832 10.4767 71.3405 10.0377 72.0892 9.73221C72.8379 9.42671 73.6573 9.27544 74.5475 9.27544C75.4377 9.27544 76.263 9.42967 77.0205 9.73221C77.778 10.0377 78.4354 10.4767 78.9954 11.0491C79.5525 11.6186 79.9887 12.2979 80.3012 13.0779C80.6136 13.861 80.7698 14.7271 80.7698 15.6792C80.7698 16.6313 80.6136 17.5003 80.3012 18.2834C79.9887 19.0635 79.5495 19.7427 78.9807 20.3122C78.4147 20.8846 77.7545 21.3236 77.0058 21.6291C76.2571 21.9346 75.4377 22.0859 74.5475 22.0859C73.6573 22.0859 72.8349 21.9346 72.0774 21.6291C71.3169 21.3236 70.6596 20.8846 70.1025 20.3122C69.5425 19.7427 69.1092 19.0575 68.7967 18.2686C68.4843 17.4766 68.3281 16.6165 68.3281 15.6792C68.3281 14.7419 68.4843 13.861 68.7967 13.0779H68.7938Z" fill="#003595"/>
<path d="M106.314 5.67139H101.456L96.2386 13.7628H92.9313V5.67139H88.3564V25.6864H92.9313V17.6246H96.103L101.282 25.6864H106.511L99.8141 15.3378L106.314 5.67139Z" fill="#003595"/>
<path d="M125.277 8.27242C124.302 7.33811 123.155 6.61439 121.837 6.10126C120.52 5.58516 119.076 5.33008 117.505 5.33008C115.933 5.33008 114.513 5.58516 113.186 6.10126C111.86 6.61439 110.704 7.33811 109.72 8.27242C108.735 9.20673 107.972 10.3042 107.433 11.5618C106.893 12.8194 106.625 14.1927 106.625 15.6787C106.625 17.1647 106.893 18.538 107.433 19.7956C107.972 21.0532 108.73 22.1507 109.708 23.085C110.684 24.0193 111.839 24.743 113.175 25.2561C114.51 25.7722 115.966 26.0273 117.537 26.0273C119.108 26.0273 120.526 25.7722 121.843 25.2561C123.161 24.743 124.308 24.0222 125.283 23.0968C126.259 22.1744 127.019 21.0769 127.568 19.8104C128.119 18.5409 128.393 17.1647 128.393 15.6787C128.393 14.1927 128.119 12.7957 127.568 11.547C127.019 10.2982 126.256 9.20673 125.283 8.27242H125.277ZM123.258 18.2799C122.946 19.06 122.507 19.7392 121.938 20.3087C121.372 20.8812 120.712 21.3202 119.963 21.6257C119.214 21.9312 118.395 22.0824 117.505 22.0824C116.614 22.0824 115.792 21.9312 115.034 21.6257C114.274 21.3202 113.617 20.8812 113.06 20.3087C112.5 19.7392 112.066 19.0541 111.754 18.2651C111.441 17.4761 111.285 16.613 111.285 15.6757C111.285 14.7384 111.441 13.8575 111.754 13.0745C112.066 12.2944 112.505 11.6152 113.074 11.0457C113.643 10.4732 114.301 10.0343 115.049 9.72876C115.798 9.42325 116.617 9.27198 117.507 9.27198C118.398 9.27198 119.223 9.42622 119.981 9.72876C120.738 10.0343 121.395 10.4732 121.955 11.0457C122.512 11.6152 122.949 12.2944 123.261 13.0745C123.574 13.8575 123.73 14.7236 123.73 15.6757C123.73 16.6278 123.574 17.4969 123.261 18.2799H123.258Z" fill="#003595"/>
<path d="M135.974 17.4794H145.011V25.6865H149.613V5.67151H145.011V13.5613H135.974V5.67151H131.372V25.6865H135.974V17.4794Z" fill="#003595"/>
<path d="M172.26 25.6865V5.67151H167.655V13.5613H158.621V5.67151H154.019V25.6865H158.621V17.4794H167.655V25.6865H172.26Z" fill="#003595"/>
<path d="M200.927 5.67139H196.353V25.6864H200.927V5.67139Z" fill="#003595"/>
<path d="M191.866 13.8637C190.56 12.787 188.703 12.2472 186.298 12.2472H181.24V5.67139H176.665V25.6864H185.644C188.202 25.6864 190.204 25.0962 191.654 23.9127C193.104 22.7322 193.826 20.9971 193.826 18.7073C193.826 16.5539 193.172 14.9404 191.866 13.8637ZM188.173 21.3678C187.492 21.9581 186.56 22.2547 185.387 22.2547H181.24V15.6759H185.387C186.581 15.6759 187.515 15.9192 188.188 16.4056C188.86 16.892 189.196 17.6869 189.196 18.7933C189.196 19.8996 188.854 20.7746 188.173 21.3678Z" fill="#003595"/>
<path d="M219.144 25.6865H223.689V5.67151H219.368L209.879 18.7074V5.67151H205.305V25.6865H209.653L219.144 12.6774V25.6865Z" fill="#003595"/>
<path d="M210.319 3.24201C211.2 4.00429 212.586 4.38691 214.481 4.38691C216.376 4.38691 217.738 4.00429 218.628 3.24201C219.519 2.47973 219.973 1.40305 219.993 0.0119629H216.839C216.822 0.697125 216.612 1.21619 216.214 1.56915C215.816 1.92211 215.239 2.09711 214.481 2.09711C213.723 2.09711 213.122 1.92211 212.733 1.56915C212.344 1.21619 212.141 0.697125 212.12 0.0119629H208.966C208.984 1.40305 209.435 2.47973 210.316 3.24201H210.319Z" fill="#003595"/>
<path d="M82.9563 35.4512H78.0985L72.8841 43.5426H69.5738V35.4512H64.999V55.4662H69.5738V47.4015H72.7455L77.9276 55.4662H83.1538L76.4567 45.1176L82.9563 35.4512Z" fill="#003595"/>
<path d="M101.924 38.0521C100.948 37.1178 99.8013 36.3941 98.4838 35.881C97.1662 35.3649 95.7219 35.1098 94.1508 35.1098C92.5797 35.1098 91.159 35.3649 89.8326 35.881C88.5062 36.3941 87.3507 37.1178 86.3662 38.0521C85.3817 38.9865 84.6183 40.0839 84.0789 41.3415C83.5395 42.5991 83.2713 43.9724 83.2713 45.4584C83.2713 46.9444 83.5395 48.3177 84.0789 49.5753C84.6183 50.8329 85.3758 51.9304 86.3544 52.8647C87.3301 53.799 88.4855 54.5227 89.8208 55.0359C91.1561 55.552 92.6122 55.807 94.1832 55.807C95.7543 55.807 97.1721 55.552 98.4897 55.0359C99.8072 54.5227 100.954 53.802 101.929 52.8766C102.905 51.9541 103.666 50.8567 104.214 49.5902C104.765 48.3207 105.039 46.9444 105.039 45.4584C105.039 43.9724 104.765 42.5754 104.214 41.3267C103.666 40.078 102.902 38.9865 101.929 38.0521H101.924ZM99.9045 48.0597C99.592 48.8397 99.1529 49.519 98.584 50.0884C98.018 50.6609 97.3578 51.0999 96.6091 51.4054C95.8604 51.7109 95.041 51.8622 94.1508 51.8622C93.2606 51.8622 92.4383 51.7109 91.6807 51.4054C90.9203 51.0999 90.2629 50.6609 89.7058 50.0884C89.1458 49.519 88.7125 48.8338 88.4001 48.0448C88.0876 47.2529 87.9314 46.3927 87.9314 45.4555C87.9314 44.5182 88.0876 43.6372 88.4001 42.8542C88.7125 42.0741 89.1517 41.3949 89.7206 40.8254C90.2895 40.253 90.9468 39.814 91.6955 39.5085C92.4442 39.203 93.2636 39.0517 94.1537 39.0517C95.0439 39.0517 95.8692 39.2059 96.6268 39.5085C97.3843 39.814 98.0416 40.253 98.6017 40.8254C99.1587 41.3949 99.595 42.0741 99.9074 42.8542C100.22 43.6372 100.376 44.5033 100.376 45.4555C100.376 46.4076 100.22 47.2766 99.9074 48.0597H99.9045Z" fill="#003595"/>
<path d="M121.655 43.3407H112.621V35.451H108.016V55.466H112.621V47.2589H121.655V55.466H126.26V35.451H121.655V43.3407Z" fill="#003595"/>
<path d="M128.617 39.2268H134.955V55.466H139.5V39.2268H145.864V35.451H128.617V39.2268Z" fill="#003595"/>
<path d="M152.767 48.4869V35.451H148.192V55.466H152.54L162.032 42.4568V55.466H166.577V35.451H162.259L152.767 48.4869Z" fill="#003595"/>
<path d="M184.589 43.3409H175.554V35.4512H170.953V55.4662H175.554V47.2591H184.589V55.4662H189.193V35.4512H184.589V43.3409Z" fill="#003595"/>
<path d="M198.171 47.1167H207.407V43.5129H198.171V39.1677H208.63V35.4512H193.6V55.4662H208.998V51.7497H198.171V47.1167Z" fill="#003595"/>
<path d="M225.791 43.3409H216.754V35.4512H212.152V55.4662H216.754V47.2591H225.791V55.4662H230.393V35.4512H225.791V43.3409Z" fill="#003595"/>
<path d="M250 35.451H232.753V39.2268H239.088V55.466H243.633V39.2268H250V35.451Z" fill="#003595"/>
</svg>
