<svg width="34" height="34" viewBox="0 0 34 34" fill="none" xmlns="http://www.w3.org/2000/svg">
<path d="M20.18 8C21.6451 8.28585 22.9915 9.00239 24.0471 10.0579C25.1026 11.1134 25.8191 12.4599 26.105 13.925M20.18 2C23.2239 2.33815 26.0623 3.70126 28.2293 5.86551C30.3963 8.02976 31.763 10.8665 32.105 13.91M14.4454 19.7946C12.6431 17.9922 11.2199 15.9543 10.1759 13.7798C10.0861 13.5928 10.0412 13.4993 10.0067 13.381C9.8841 12.9604 9.97215 12.444 10.2272 12.0879C10.2989 11.9877 10.3847 11.9019 10.5561 11.7305C11.0805 11.2061 11.3427 10.9439 11.5142 10.6802C12.1607 9.68585 12.1607 8.40398 11.5142 7.40965C11.3427 7.14598 11.0805 6.88378 10.5561 6.35937L10.2638 6.06706C9.46667 5.2699 9.06808 4.87132 8.64001 4.6548C7.78867 4.2242 6.78328 4.2242 5.93193 4.6548C5.50386 4.87132 5.10528 5.2699 4.30812 6.06706L4.07166 6.30351C3.27723 7.09795 2.88001 7.49517 2.57664 8.03521C2.24001 8.63447 1.99797 9.56521 2.00001 10.2525C2.00186 10.872 2.12201 11.2953 2.36232 12.142C3.65378 16.6921 6.09049 20.9856 9.67246 24.5676C13.2544 28.1495 17.548 30.5863 22.0981 31.8777C22.9447 32.118 23.3681 32.2382 23.9875 32.24C24.6748 32.2421 25.6056 32 26.2048 31.6634C26.7449 31.36 27.1421 30.9628 27.9365 30.1684L28.173 29.9319C28.9701 29.1348 29.3687 28.7362 29.5852 28.3081C30.0158 27.4568 30.0158 26.4514 29.5852 25.6C29.3687 25.1719 28.9701 24.7734 28.173 23.9762L27.8807 23.6839C27.3563 23.1595 27.094 22.8973 26.8304 22.7259C25.836 22.0794 24.5542 22.0794 23.5598 22.7259C23.2962 22.8973 23.034 23.1595 22.5096 23.6839C22.3381 23.8554 22.2524 23.9411 22.1521 24.0129C21.796 24.2679 21.2796 24.3559 20.8591 24.2333C20.7407 24.1989 20.6472 24.154 20.4602 24.0642C18.2858 23.0202 16.2478 21.597 14.4454 19.7946Z" stroke="#222222" stroke-width="3" stroke-linecap="round" stroke-linejoin="round"/>
</svg>
