<svg width="27" height="18" viewBox="0 0 27 18" fill="none" xmlns="http://www.w3.org/2000/svg">
<g clip-path="url(#clip0_1759_6034)">
<path d="M8.62999 4.63516C5.89999 4.63516 3.67999 6.85516 3.67999 9.58516C3.67999 12.3152 5.89999 14.5352 8.62999 14.5352C11.36 14.5352 13.58 12.3152 13.58 9.58516C13.58 6.85516 11.36 4.63516 8.62999 4.63516ZM8.62999 13.0452C6.72999 13.0452 5.17999 11.4952 5.17999 9.59516C5.17999 7.69516 6.72999 6.14516 8.62999 6.14516C10.53 6.14516 12.08 7.69516 12.08 9.59516C12.08 11.4952 10.53 13.0452 8.62999 13.0452Z" fill="white"/>
<path d="M26 12.5852C25.59 12.5852 25.25 12.9252 25.25 13.3352V14.9152H17.01V9.58516C17.01 8.85516 16.9 8.13516 16.72 7.44516L17.84 6.32516C18.18 5.98516 18.37 5.53516 18.37 5.05516C18.37 4.57516 18.18 4.12516 17.84 3.77516L14.63 0.565161C13.93 -0.134839 12.79 -0.134839 12.08 0.565161L11.07 1.57516C10.12 1.28516 9.12003 1.15516 8.10003 1.22516C3.89003 1.48516 0.53003 4.84516 0.27003 9.04516C0.13003 11.3852 0.93003 13.6152 2.53003 15.3152C4.11003 16.9952 6.33003 17.9552 8.64003 17.9552H14.97C15.93 17.9552 16.73 17.2952 16.95 16.4052H26.01C26.42 16.4052 26.76 16.0652 26.76 15.6552V13.3252C26.76 12.9152 26.42 12.5752 26.01 12.5752L26 12.5852ZM12.58 2.19516L13.15 1.62516C13.27 1.50516 13.46 1.50516 13.58 1.62516L16.79 4.83516C16.87 4.91516 16.88 5.00516 16.88 5.04516C16.88 5.08516 16.87 5.18516 16.79 5.25516L16.16 5.88516C16.16 5.88516 16.1 5.79516 16.08 5.74516C15.72 5.04516 15.26 4.39516 14.71 3.81516C14.68 3.78516 14.64 3.74516 14.61 3.71516C14.53 3.63516 14.46 3.55516 14.38 3.47516C13.86 2.98516 13.28 2.57516 12.67 2.24516C12.64 2.22516 12.62 2.20516 12.59 2.19516H12.58ZM15.51 15.9152C15.51 16.2152 15.26 16.4652 14.96 16.4652H8.63003C6.71003 16.4652 4.93003 15.6952 3.62003 14.2952C2.31003 12.8952 1.65003 11.0652 1.77003 9.14516C1.98003 5.69516 4.75003 2.93516 8.20003 2.72516C8.35003 2.72516 8.50003 2.71516 8.64003 2.71516C9.48003 2.71516 10.3 2.86516 11.06 3.15516C11.53 3.33516 11.98 3.55516 12.39 3.83516C12.41 3.84516 12.42 3.85516 12.44 3.87516C12.63 3.99516 12.8 4.13516 12.98 4.27516C13.02 4.30516 13.05 4.33516 13.09 4.36516C13.24 4.49516 13.38 4.62516 13.52 4.76516C13.56 4.80516 13.6 4.85516 13.64 4.89516C13.78 5.04516 13.91 5.19516 14.04 5.35516C14.07 5.38516 14.09 5.42516 14.12 5.45516C14.26 5.63516 14.38 5.81516 14.5 6.00516C14.51 6.02516 14.53 6.04516 14.54 6.06516C14.66 6.27516 14.78 6.48516 14.88 6.70516C14.88 6.71516 14.89 6.72516 14.9 6.73516C15.01 6.96516 15.1 7.20516 15.18 7.45516C15.4 8.13516 15.52 8.85516 15.52 9.58516V15.9152H15.51Z" fill="white"/>
</g>
<defs>
<clipPath id="clip0_1759_6034">
<rect width="26.5" height="17.93" fill="white" transform="translate(0.25 0.0351562)"/>
</clipPath>
</defs>
</svg>
